<svg xmlns="http://www.w3.org/2000/svg" width="84" height="26" viewBox="0 0 84 26" fill="none"><path fill-rule="evenodd" clip-rule="evenodd" d="M51.8798 19.8472C47.0468 23.4202 40.0178 25.3242 33.9548 25.3242C25.8675 25.3644 18.0557 22.3879 12.0458 16.9762C11.6068 16.5662 11.9868 16.0092 12.5458 16.3322C18.3657 19.6814 24.8818 21.6384 31.584 22.0499C38.2863 22.4614 44.9928 21.3163 51.1788 18.7042C51.9968 18.3832 52.6708 19.2652 51.8798 19.8472Z" fill="#4D5072"></path><path fill-rule="evenodd" clip-rule="evenodd" d="M53.9009 17.5331C53.2859 16.7421 49.8009 17.1521 48.2479 17.3571C47.7789 17.4161 47.6909 17.0061 48.1309 16.7131C50.9139 14.7511 55.4529 15.3361 55.9809 15.9811C56.5089 16.6261 55.8349 21.1951 53.2279 23.3621C52.8179 23.6841 52.4369 23.508 52.6129 23.069C53.1979 21.605 54.5159 18.3531 53.9009 17.5331Z" fill="#4D5072"></path><path fill-rule="evenodd" clip-rule="evenodd" d="M48.3359 2.94707V1.04708C48.3326 0.984616 48.3425 0.922161 48.3649 0.863759C48.3873 0.805356 48.4217 0.752318 48.4659 0.708089C48.5102 0.663859 48.5632 0.629412 48.6216 0.607015C48.68 0.584617 48.7425 0.57477 48.8049 0.578084H57.2959C57.4242 0.574833 57.5486 0.622204 57.6422 0.709981C57.7357 0.797757 57.791 0.918871 57.7959 1.04708V2.65807C57.7959 2.92207 57.5619 3.27308 57.1519 3.85808L52.7589 10.1261C54.433 10.0359 56.1014 10.3884 57.5959 11.1481C57.7256 11.2223 57.8341 11.3286 57.911 11.4568C57.9879 11.5849 58.0305 11.7307 58.0349 11.8801V13.9011C58.0349 14.1941 57.7419 14.5161 57.4199 14.3401C56.034 13.6228 54.4954 13.2508 52.9349 13.2558C51.3744 13.2609 49.8381 13.6428 48.4569 14.3691C48.387 14.3941 48.3121 14.4018 48.2386 14.3916C48.165 14.3814 48.0951 14.3535 48.0346 14.3104C47.9742 14.2672 47.9251 14.2101 47.8916 14.1439C47.858 14.0777 47.841 14.0043 47.8419 13.9301V11.9941C47.8131 11.5414 47.9256 11.091 48.1639 10.7051L53.2639 3.41207H48.8409C48.7127 3.41532 48.5883 3.36795 48.4947 3.28017C48.4011 3.19239 48.3459 3.07128 48.3409 2.94307L48.3359 2.94707ZM17.3769 14.7471H14.7959C14.6804 14.7355 14.5719 14.6863 14.4872 14.6069C14.4024 14.5276 14.3461 14.4226 14.3269 14.3081V1.07308C14.3319 0.944872 14.3871 0.823758 14.4807 0.735982C14.5743 0.648205 14.6987 0.600834 14.8269 0.604085H17.2269C17.3457 0.605701 17.4597 0.65158 17.5464 0.732777C17.6332 0.813975 17.6865 0.924638 17.6959 1.04308V2.77108H17.7549C17.983 2.05677 18.4322 1.43343 19.0377 0.991139C19.6432 0.548844 20.3736 0.310475 21.1234 0.310475C21.8733 0.310475 22.6037 0.548844 23.2092 0.991139C23.8147 1.43343 24.2639 2.05677 24.4919 2.77108C24.7489 2.03464 25.2338 1.39919 25.8762 0.956868C26.5187 0.514549 27.2853 0.288361 28.0649 0.311086C28.6437 0.299408 29.2169 0.426269 29.7367 0.681111C30.2564 0.935953 30.7077 1.31139 31.0529 1.77608C31.8729 2.88908 31.6969 4.50008 31.6969 5.93508V14.3121C31.692 14.4403 31.6367 14.5614 31.5432 14.6492C31.4496 14.7369 31.3252 14.7843 31.1969 14.7811H28.6489C28.5269 14.7737 28.4119 14.722 28.3255 14.6355C28.2391 14.5491 28.1873 14.434 28.1799 14.3121V7.28307C28.2192 6.45272 28.1995 5.62064 28.1209 4.79308C28.0672 4.4408 27.8773 4.12369 27.5921 3.91008C27.3068 3.69648 26.9491 3.60348 26.5959 3.65108C26.2597 3.66079 25.9337 3.76855 25.6579 3.96114C25.3822 4.15374 25.1688 4.42275 25.0439 4.73507C24.8317 5.56668 24.7527 6.42671 24.8099 7.28307V14.3121C24.805 14.4403 24.7497 14.5614 24.6562 14.6492C24.5626 14.7369 24.4382 14.7843 24.3099 14.7811H21.7329C21.6109 14.7737 21.4959 14.722 21.4095 14.6355C21.3231 14.5491 21.2713 14.434 21.2639 14.3121V7.28307C21.2639 5.81807 21.4979 3.62209 19.6819 3.62209C17.8369 3.62209 17.8949 5.73107 17.8949 7.28307V14.3121C17.8765 14.4373 17.8126 14.5513 17.7154 14.6323C17.6181 14.7133 17.4944 14.7556 17.3679 14.7511L17.3769 14.7471ZM65.1189 0.307088C68.9559 0.307088 71.0359 3.58708 71.0359 7.77608C71.0359 11.8181 68.7509 15.0401 65.1189 15.0401C61.3699 15.0401 59.3189 11.7601 59.3189 7.65908C59.2899 3.52908 61.3689 0.307088 65.1189 0.307088ZM65.1189 3.03109C63.2189 3.03109 63.0979 5.63807 63.0979 7.24907C63.0979 8.86007 63.0689 12.3161 65.0899 12.3161C67.0819 12.3161 67.1989 9.53307 67.1989 7.83507C67.2349 6.65143 67.1067 5.46853 66.8179 4.32009C66.7379 3.93653 66.5215 3.59496 66.209 3.35869C65.8964 3.12243 65.5088 3.00747 65.1179 3.03508L65.1189 3.03109ZM75.9849 14.7471H73.4079C73.2859 14.7397 73.1709 14.6879 73.0845 14.6015C72.9981 14.5151 72.9463 14.4 72.9389 14.2781V1.01409C72.9551 0.892837 73.0147 0.781536 73.1066 0.700826C73.1986 0.620116 73.3166 0.575436 73.4389 0.575063H75.8389C75.948 0.578707 76.0528 0.617938 76.1375 0.686726C76.2222 0.755515 76.282 0.850098 76.3079 0.956075V2.97707H76.3669C77.0989 1.16107 78.0949 0.312062 79.8819 0.312062C80.4765 0.285048 81.0678 0.414094 81.5971 0.68636C82.1263 0.958626 82.5752 1.36464 82.8989 1.86406C83.5729 2.91906 83.5729 4.70507 83.5729 5.99407V14.3421C83.5552 14.4602 83.4943 14.5676 83.4019 14.6434C83.3095 14.7191 83.1923 14.7578 83.0729 14.7521H80.4959C80.3846 14.7415 80.2795 14.6963 80.1953 14.6227C80.1111 14.5492 80.0522 14.451 80.0269 14.3421V7.13707C80.0269 5.67307 80.2029 3.56408 78.4159 3.56408C78.0924 3.57917 77.7798 3.6864 77.5152 3.87313C77.2505 4.05986 77.0447 4.3183 76.9219 4.61806C76.6086 5.41927 76.4689 6.27786 76.5119 7.13707V14.2841C76.4957 14.4128 76.4334 14.5313 76.3365 14.6175C76.2396 14.7038 76.1147 14.7519 75.9849 14.7531V14.7471ZM41.5699 8.42006C41.6657 9.36327 41.5036 10.3148 41.1009 11.1731C40.9376 11.5123 40.6849 11.8006 40.3701 12.0071C40.0553 12.2136 39.6901 12.3304 39.3139 12.3451C38.3139 12.3451 37.7319 11.5831 37.7319 10.4701C37.7319 8.27008 39.6939 7.86309 41.5689 7.86309L41.5699 8.42006ZM44.1769 14.7201C44.0935 14.793 43.9892 14.8379 43.8789 14.8485C43.7686 14.8591 43.6577 14.8348 43.5619 14.7791C42.9653 14.2963 42.4595 13.7112 42.0679 13.0511C41.5572 13.6754 40.9065 14.1706 40.1686 14.4964C39.4307 14.8222 38.6264 14.9694 37.8209 14.9261C37.2924 14.9571 36.7635 14.8733 36.2704 14.6805C35.7773 14.4877 35.3318 14.1905 34.9645 13.8092C34.5972 13.4279 34.3167 12.9717 34.1425 12.4717C33.9682 11.9718 33.9042 11.4401 33.9549 10.9131C33.9246 10.0123 34.1726 9.12402 34.6652 8.36925C35.1578 7.61448 35.8711 7.02989 36.7079 6.69509C38.28 6.17366 39.9156 5.86818 41.5699 5.78707V5.46508C41.6575 4.82184 41.5451 4.16725 41.2479 3.59008C41.0795 3.37173 40.8615 3.19668 40.612 3.07946C40.3624 2.96224 40.0885 2.90623 39.8129 2.91607C39.3362 2.87446 38.8608 3.00964 38.4773 3.29583C38.0937 3.58201 37.8288 3.99922 37.7329 4.46807C37.6739 4.70207 37.5329 4.93706 37.2939 4.93706L34.8039 4.67309C34.7438 4.66463 34.686 4.64412 34.634 4.61278C34.582 4.58144 34.5368 4.53993 34.5012 4.49071C34.4656 4.4415 34.4404 4.38559 34.4269 4.32638C34.4135 4.26716 34.4121 4.20583 34.4229 4.14608C35.0089 1.10008 37.7329 0.192067 40.1929 0.192067C41.6066 0.131614 42.9937 0.590053 44.0929 1.48107C45.3519 2.65307 45.2349 4.23406 45.2349 5.93306V9.94606C45.2513 10.8377 45.5956 11.6921 46.2019 12.3461C46.3779 12.5801 46.4069 12.8731 46.2019 13.0201C45.6409 13.4621 44.7019 14.2821 44.1769 14.7201ZM7.74094 8.42006C7.83667 9.36327 7.67457 10.3148 7.27193 11.1731C7.10857 11.5123 6.85592 11.8006 6.54109 12.0071C6.22626 12.2136 5.86116 12.3304 5.48494 12.3451C4.48494 12.3451 3.90294 11.5831 3.90294 10.4701C3.90294 8.27008 5.86493 7.86309 7.73993 7.86309L7.74094 8.42006ZM10.3189 14.7201C10.2355 14.793 10.1312 14.8379 10.0209 14.8485C9.9106 14.8591 9.79975 14.8348 9.70394 14.7791C9.10736 14.2963 8.60147 13.7112 8.20993 13.0511C7.69923 13.6754 7.04853 14.1706 6.31063 14.4964C5.57272 14.8222 4.7684 14.9694 3.96294 14.9261C3.43442 14.9571 2.90545 14.8733 2.41237 14.6805C1.91929 14.4877 1.47379 14.1905 1.10648 13.8092C0.739163 13.4279 0.458737 12.9717 0.284471 12.4717C0.110206 11.9718 0.0462354 11.4401 0.0969408 10.9131C0.0665767 10.0123 0.314584 9.12402 0.807207 8.36925C1.29983 7.61448 2.01312 7.02989 2.84993 6.69509C4.42201 6.17366 6.05763 5.86818 7.71193 5.78707V5.46508C7.79949 4.82184 7.68708 4.16725 7.38994 3.59008C7.22156 3.37173 7.00354 3.19668 6.75397 3.07946C6.5044 2.96224 6.23048 2.90623 5.95493 2.91607C5.47819 2.87446 5.00281 3.00964 4.61926 3.29583C4.23572 3.58201 3.9708 3.99922 3.87494 4.46807C3.81594 4.70207 3.66993 4.93706 3.43593 4.93706L0.94594 4.67309C0.885803 4.66463 0.827989 4.64412 0.775972 4.61278C0.723956 4.58144 0.6788 4.53993 0.643221 4.49071C0.607641 4.4415 0.582363 4.38559 0.56891 4.32638C0.555458 4.26716 0.554103 4.20583 0.564928 4.14608C1.15093 1.10008 3.87493 0.192067 6.33493 0.192067C7.74864 0.131614 9.1357 0.590053 10.2349 1.48107C11.4939 2.65307 11.3769 4.23406 11.3769 5.93306V9.94606C11.3934 10.8377 11.7377 11.6921 12.3439 12.3461C12.5199 12.5801 12.5489 12.8731 12.3439 13.0201C11.7869 13.4591 10.8499 14.2791 10.3229 14.7201H10.3189Z" fill="#4D5072"></path></svg>