<svg xmlns="http://www.w3.org/2000/svg" width="83" height="21" viewBox="0 0 83 21" fill="none"><path d="M19.338 19.269H14.771L13.371 15.9H5.764L4.491 19.269H0L6.861 2.25201H11.777L19.338 19.269ZM9.382 6.31801L6.882 12.93H12.122L9.382 6.31801ZM35.925 2.25201H39.618V19.269H35.376V8.63701L30.785 13.976H30.136L25.545 8.63701V19.269H21.3V2.25201H25L30.46 8.56501L35.925 2.25201ZM50.367 2.25201C56.58 2.25201 59.773 6.11901 59.773 10.785C59.773 15.675 56.679 19.269 49.893 19.269H42.856V2.25201H50.367ZM47.1 16.15H49.869C54.136 16.15 55.408 13.25 55.408 10.759C55.408 7.83901 53.836 5.37001 49.819 5.37001H47.1V16.15ZM68.212 6.28701L62.863 0.937012H82.336V20.411L76.987 15.062V6.28701H68.212ZM68.206 7.35901L62.7 12.866V20.575H70.408L75.915 15.068H68.206V7.35901Z" fill="#4D5072"></path></svg>