<svg xmlns="http://www.w3.org/2000/svg" width="123" height="25" viewBox="0 0 123 25" fill="none"><path fill-rule="evenodd" clip-rule="evenodd" d="M4.2651 3.11945C5.17336 2.33028 6.22885 1.7287 7.37072 1.34939C8.51259 0.970083 9.71825 0.820554 10.9182 0.909424C12.1181 0.998294 13.2886 1.32381 14.3621 1.86719C15.4356 2.41058 16.391 3.16109 17.1731 4.07545C18.8549 5.77618 19.8372 8.04615 19.9257 10.4364C20.0142 12.8266 19.2025 15.163 17.6511 16.9834L10.4801 24.1544C9.0461 23.1985 6.6561 21.2865 7.6121 19.3735C9.5241 16.9835 11.9121 15.0735 13.8271 12.6805C15.2611 10.7685 14.3051 6.94345 11.4371 6.46545C10.7935 6.24049 10.103 6.18454 9.43156 6.30295C8.76016 6.42136 8.1304 6.71017 7.60261 7.14172C7.07481 7.57327 6.66666 8.1331 6.41724 8.7676C6.16781 9.4021 6.08547 10.09 6.1781 10.7655C6.1781 13.1555 8.0901 14.5895 9.5241 16.0245C8.0901 17.4585 6.1781 18.4144 6.1781 20.3244C4.7441 18.4124 2.3541 16.9785 1.3971 14.5875C0.523071 12.6307 0.330641 10.4372 0.850595 8.35815C1.37055 6.27906 2.57284 4.43445 4.2651 3.11945Z" fill="#4D5072"></path><path fill-rule="evenodd" clip-rule="evenodd" d="M34.861 3.11939C35.339 1.68539 36.773 2.16339 37.729 2.16339V19.8464H34.861V18.4164C33.71 19.3444 32.276 19.8505 30.7975 19.8505C29.319 19.8505 27.885 19.3444 26.734 18.4164C25.4101 17.2076 24.6171 15.5248 24.5275 13.7343C24.438 11.9437 25.0592 10.1902 26.256 8.85539C27.3322 7.68409 28.796 6.94198 30.3769 6.76624C31.9578 6.5905 33.5489 6.99302 34.856 7.89939L34.861 3.11939ZM30.561 9.33439C28.171 9.81239 26.261 13.1584 28.171 15.5494C28.5281 16.0703 29.016 16.4882 29.5856 16.7609C30.1553 17.0337 30.7867 17.1518 31.4164 17.1033C32.0461 17.0549 32.652 16.8417 33.1733 16.485C33.6945 16.1283 34.1128 15.6408 34.386 15.0714C35.817 12.6804 33.426 9.33339 30.558 9.33339L30.561 9.33439Z" fill="#4D5072"></path><path fill-rule="evenodd" clip-rule="evenodd" d="M40.1191 6.94335H42.9871V7.89935C43.9431 6.46535 45.8551 6.46535 47.7681 6.94335C47.2901 7.89935 46.8121 8.37735 46.8121 9.33335C44.9001 8.85535 42.9881 9.81135 42.9881 11.2454V18.4164C42.5091 19.8554 41.0751 19.8554 40.1191 19.8554V6.94335Z" fill="#4D5072"></path><path fill-rule="evenodd" clip-rule="evenodd" d="M52.0702 6.94437C56.8512 5.03237 61.6312 9.81237 60.6702 14.5934C59.7092 19.3744 53.0212 21.7644 49.6702 18.4174C45.8462 15.0714 47.2802 7.90037 52.0602 6.94437H52.0702ZM53.5042 9.33437C52.7015 9.54852 51.9694 9.97063 51.382 10.5581C50.7945 11.1456 50.3724 11.8776 50.1582 12.6804C50.0601 13.2258 50.0872 13.7864 50.2374 14.3198C50.3876 14.8532 50.657 15.3456 51.0252 15.7597C51.3935 16.1738 51.851 16.4989 52.3633 16.7103C52.8755 16.9218 53.4291 17.0141 53.9822 16.9804C55.8942 16.9804 57.8062 15.5464 57.8062 13.6344C57.8062 11.2464 55.4172 8.85637 53.5062 9.33437H53.5042Z" fill="#4D5072"></path><path fill-rule="evenodd" clip-rule="evenodd" d="M62.5879 6.94355H65.4559V7.89955C66.763 6.99318 68.3541 6.59066 69.935 6.7664C71.5159 6.94213 72.9797 7.68424 74.0559 8.85555C74.6469 9.46983 75.1056 10.1988 75.4037 10.9973C75.7018 11.7959 75.833 12.6471 75.7892 13.4984C75.7453 14.3497 75.5273 15.1829 75.1487 15.9466C74.7701 16.7103 74.2389 17.3883 73.5879 17.9385C71.6759 20.3286 67.8509 20.3286 65.4609 18.8946V23.1946C64.9829 24.6286 63.5489 24.6286 62.5929 24.6286V6.94355H62.5879ZM68.8029 9.33355C65.9349 9.81155 64.5029 13.1575 65.9349 15.0705C67.3689 17.4606 71.1939 17.4606 72.1499 15.0705C74.0609 12.6796 71.6709 9.33355 68.8029 9.33355Z" fill="#4D5072"></path><path fill-rule="evenodd" clip-rule="evenodd" d="M80.7542 7.42234C81.9641 6.74387 83.3595 6.47064 84.7359 6.64267C86.1124 6.8147 87.3976 7.42296 88.4032 8.37834C87.9252 8.85634 87.4472 9.81234 86.4912 10.2903C86.0456 9.92934 85.5222 9.67686 84.9623 9.55283C84.4024 9.42881 83.8213 9.43664 83.2649 9.57571C82.7085 9.71478 82.1921 9.98128 81.7564 10.3542C81.3206 10.7271 80.9776 11.1961 80.7542 11.7243C80.5465 12.2904 80.472 12.8968 80.5367 13.4963C80.6013 14.0958 80.8033 14.6723 81.127 15.1811C81.4507 15.6898 81.8874 16.1171 82.403 16.4297C82.9187 16.7422 83.4995 16.9317 84.1002 16.9833C85.0562 16.9833 86.0122 16.5053 86.9682 16.5053C87.8221 16.8813 88.5042 17.5635 88.8802 18.4173C85.5342 21.2853 79.7972 20.3293 78.3632 16.0273C76.4512 13.1583 77.8852 9.33234 80.7542 7.42234Z" fill="#4D5072"></path><path fill-rule="evenodd" clip-rule="evenodd" d="M88.8811 15.5483C87.4491 11.2463 90.7931 6.46533 95.0961 6.46533C96.8172 6.54046 98.4624 7.19538 99.7642 8.32368C101.066 9.45198 101.948 10.9874 102.267 12.6803V19.8513C100.833 19.8513 99.8771 19.8513 98.9211 18.8953C95.5751 21.2853 90.3211 19.3733 88.8821 15.5493L88.8811 15.5483ZM95.0961 9.33333C94.4378 9.45719 93.8186 9.73674 93.2903 10.1486C92.7619 10.5605 92.3398 11.0928 92.0591 11.7011C91.7784 12.3094 91.6473 12.976 91.6767 13.6452C91.7061 14.3145 91.8952 14.967 92.2281 15.5483C94.1401 17.9383 97.9651 17.4603 98.9211 15.0703C99.1659 14.4399 99.2554 13.7599 99.182 13.0876C99.1086 12.4154 98.8744 11.7707 98.4992 11.208C98.1241 10.6453 97.619 10.1812 97.0267 9.85495C96.4344 9.52865 95.7722 9.34974 95.0961 9.33333Z" fill="#4D5072"></path><path fill-rule="evenodd" clip-rule="evenodd" d="M104.179 6.94437H107.047V7.90037C108.481 5.98837 111.828 6.46637 113.74 8.37837C116.13 5.51037 120.911 6.46637 121.867 9.81237C122.345 12.6804 121.867 16.0274 121.867 18.8954C121.867 19.8514 120.433 19.8514 118.999 19.8514C118.999 16.9834 119.477 14.1144 118.999 11.2514C118.906 10.7495 118.64 10.2961 118.247 9.96984C117.854 9.64357 117.36 9.46496 116.849 9.46496C116.339 9.46496 115.844 9.64357 115.452 9.96984C115.059 10.2961 114.793 10.7495 114.699 11.2514V19.8514H111.831C111.91 16.8158 111.751 13.7788 111.353 10.7684C110.875 8.85637 107.529 9.33437 107.529 11.2464C107.132 14.0949 106.972 16.9714 107.051 19.8464H104.179V6.94437Z" fill="#4D5072"></path></svg>