<svg xmlns="http://www.w3.org/2000/svg" width="83" height="26" viewBox="0 0 83 26" fill="none"><path d="M0.73584 17.9035V0.697496H3.75784V17.9035H0.73584ZM11.4948 5.4215C10.6397 5.40223 9.78942 5.55426 8.99397 5.86865C8.19852 6.18303 7.47403 6.65341 6.86315 7.25208C6.25227 7.85075 5.76736 8.5656 5.43698 9.35454C5.10661 10.1435 4.93744 10.9906 4.93944 11.8459C4.94144 12.7012 5.11457 13.5475 5.44864 14.3349C5.78271 15.1222 6.27096 15.8348 6.88463 16.4306C7.4983 17.0264 8.22499 17.4934 9.02191 17.8041C9.81882 18.1147 10.6698 18.2628 11.5248 18.2395C12.3732 18.2479 13.2148 18.0879 14.0008 17.7686C14.7868 17.4493 15.5016 16.9772 16.1038 16.3795C16.706 15.7819 17.1835 15.0707 17.5088 14.2871C17.834 13.5035 18.0005 12.6632 17.9985 11.8148C17.9965 10.9664 17.8261 10.1269 17.4972 9.34482C17.1683 8.56278 16.6874 7.85381 16.0825 7.25901C15.4775 6.66421 14.7605 6.19542 13.973 5.87983C13.1855 5.56423 12.3431 5.4081 11.4948 5.4205V5.4215ZM11.4598 8.3335C12.2604 8.33097 13.0371 8.60597 13.6577 9.11169C14.2783 9.61741 14.7045 10.3226 14.8637 11.1072C15.0228 11.8918 14.9052 12.7073 14.5307 13.4149C14.1562 14.1225 13.5481 14.6784 12.8098 14.988C12.0715 15.2977 11.2488 15.3419 10.4816 15.1131C9.71439 14.8844 9.05018 14.3968 8.60203 13.7334C8.15389 13.0701 7.9495 12.2719 8.02368 11.4747C8.09785 10.6776 8.44599 9.93081 9.00884 9.3615C9.65833 8.70906 10.5393 8.33958 11.4598 8.3335ZM25.6238 5.4215C24.7687 5.40223 23.9184 5.55426 23.123 5.86865C22.3275 6.18303 21.603 6.65341 20.9921 7.25208C20.3813 7.85075 19.8964 8.5656 19.566 9.35454C19.2356 10.1435 19.0664 10.9906 19.0684 11.8459C19.0704 12.7012 19.2436 13.5475 19.5776 14.3349C19.9117 15.1222 20.4 15.8348 21.0136 16.4306C21.6273 17.0264 22.354 17.4934 23.1509 17.8041C23.9478 18.1147 24.7988 18.2628 25.6538 18.2395C26.5078 18.2603 27.3572 18.1085 28.151 17.7932C28.9449 17.4779 29.667 17.0055 30.2739 16.4045C30.8809 15.8034 31.3602 15.086 31.6833 14.2952C32.0063 13.5045 32.1663 12.6566 32.1538 11.8025C32.2386 10.6242 31.8881 9.45566 31.1688 8.5185L32.0068 8.2315V5.7785H27.7198C27.0443 5.54442 26.3347 5.42379 25.6198 5.4215H25.6238ZM25.5888 8.3335C26.3893 8.33143 27.1658 8.60682 27.7861 9.1128C28.4064 9.61879 28.8322 10.3241 28.991 11.1087C29.1498 11.8932 29.0318 12.7086 28.6571 13.416C28.2824 14.1234 27.6742 14.679 26.9359 14.9884C26.1976 15.2978 25.3749 15.3418 24.6079 15.1129C23.8408 14.884 23.1767 14.3964 22.7287 13.733C22.2807 13.0696 22.0765 12.2715 22.1507 11.4745C22.2249 10.6774 22.573 9.93075 23.1358 9.3615C23.7858 8.70857 24.6676 8.33906 25.5888 8.3335ZM29.0888 18.7415C29.0888 19.6666 28.7214 20.5538 28.0672 21.2079C27.4131 21.862 26.5259 22.2295 25.6008 22.2295C24.6758 22.2295 23.7886 21.862 23.1345 21.2079C22.4803 20.5538 22.1128 19.6666 22.1128 18.7415H19.0458C19.0315 19.6036 19.1934 20.4595 19.5215 21.2568C19.8497 22.0541 20.3372 22.776 20.9542 23.3782C21.5712 23.9804 22.3047 24.4503 23.1098 24.759C23.9148 25.0677 24.7744 25.2087 25.6358 25.1735C26.4893 25.1953 27.3383 25.0444 28.132 24.73C28.9258 24.4156 29.6478 23.9441 30.2548 23.3438C30.8618 22.7435 31.3413 22.0268 31.6646 21.2366C31.9878 20.4464 32.1481 19.5991 32.1358 18.7455L29.0888 18.7415ZM33.3708 17.9005V5.7785H36.3938V17.9035L33.3708 17.9005ZM39.3278 17.9005V8.4945H37.7068V5.7785H39.3278V2.0555H42.3498V5.7785H44.0148V8.4945H42.3498V17.9035L39.3278 17.9005ZM36.8768 2.3335C36.8768 2.72906 36.7595 3.11574 36.5398 3.44464C36.32 3.77353 36.0077 4.02988 35.6422 4.18126C35.2768 4.33263 34.8746 4.37224 34.4867 4.29507C34.0987 4.2179 33.7423 4.02741 33.4626 3.74771C33.1829 3.468 32.9924 3.11164 32.9153 2.72368C32.8381 2.33571 32.8777 1.93358 33.0291 1.56813C33.1805 1.20268 33.4368 0.89032 33.7657 0.670557C34.0946 0.450794 34.4813 0.333496 34.8768 0.333496C35.4073 0.333496 35.916 0.54421 36.2911 0.919283C36.6661 1.29436 36.8768 1.80306 36.8768 2.3335ZM50.8098 5.4135C49.9554 5.39616 49.1065 5.55348 48.315 5.87581C47.5236 6.19813 46.8063 6.67867 46.2071 7.28799C45.6078 7.8973 45.1394 8.62255 44.8303 9.4193C44.5213 10.216 44.3782 11.0675 44.4098 11.9215C44.3748 12.7737 44.5192 13.6238 44.8337 14.4167C45.1482 15.2096 45.6258 15.9275 46.2355 16.524C46.8452 17.1205 47.5734 17.5822 48.373 17.8793C49.1725 18.1764 50.0256 18.3022 50.8768 18.2485C51.904 18.281 52.9262 18.0924 53.8743 17.6956C54.8223 17.2988 55.674 16.703 56.3718 15.9485L54.3518 13.9255C53.4455 14.8748 52.2236 15.4601 50.9158 15.5715C50.1574 15.6013 49.4123 15.3662 48.8083 14.9066C48.2044 14.4469 47.7792 13.7914 47.6058 13.0525H57.0238V12.2205C57.0238 8.8995 55.1018 5.4145 50.8148 5.4145L50.8098 5.4135ZM50.7098 8.0745C51.4523 8.03181 52.1841 8.2664 52.7634 8.73277C53.3427 9.19914 53.7281 9.86405 53.8448 10.5985H47.5148C47.6634 9.86723 48.0665 9.21234 48.6524 8.75021C49.2383 8.28809 49.9691 8.04867 50.7148 8.0745H50.7098ZM64.5788 18.2495C63.7358 18.2504 62.9008 18.0851 62.1215 17.7633C61.3423 17.4414 60.6341 16.9693 60.0373 16.3737C58.8321 15.171 58.1541 13.5387 58.1523 11.836C58.1506 10.1333 58.8254 8.49967 60.0281 7.29447C61.2309 6.08926 62.8632 5.41122 64.5658 5.4095C65.5557 5.40209 66.5348 5.61588 67.4315 6.03526C68.3282 6.45463 69.1199 7.069 69.7488 7.8335L67.6358 9.9335C67.2583 9.47114 66.7889 9.09217 66.2574 8.82055C65.7258 8.54893 65.1437 8.39057 64.5478 8.3555C64.0889 8.34407 63.6324 8.42571 63.2058 8.59549C62.7793 8.76527 62.3915 9.01968 62.066 9.34337C61.7404 9.66706 61.4838 10.0533 61.3116 10.4789C61.1393 10.9045 61.0551 11.3605 61.0638 11.8195C61.0523 12.2796 61.1335 12.7372 61.3026 13.1653C61.4717 13.5933 61.7252 13.9829 62.0481 14.3108C62.371 14.6387 62.7566 14.8983 63.1819 15.074C63.6073 15.2497 64.0637 15.3379 64.5238 15.3335C65.1242 15.3023 65.7113 15.1456 66.2474 14.8734C66.7834 14.6013 67.2564 14.2198 67.6358 13.7535L69.7658 15.8535C69.1351 16.6155 68.3418 17.2266 67.444 17.6419C66.5463 18.0572 65.5669 18.2662 64.5778 18.2535L64.5788 18.2495ZM70.8668 17.9125V0.653496H73.8888V6.9945C74.3435 6.47185 74.9098 6.05813 75.5459 5.78394C76.1821 5.50975 76.8717 5.38212 77.5638 5.4105C80.7288 5.4105 82.5638 7.7635 82.5638 10.7725V17.9125H79.5358V11.2335C79.5813 10.8647 79.5456 10.4905 79.4313 10.137C79.317 9.78344 79.1269 9.45914 78.8742 9.18674C78.6215 8.91435 78.3124 8.70043 77.9684 8.55996C77.6245 8.41949 77.254 8.35585 76.8828 8.3735C76.4793 8.3414 76.0735 8.39757 75.6938 8.53808C75.3141 8.67859 74.9696 8.90009 74.6841 9.18718C74.3986 9.47427 74.1791 9.82007 74.0407 10.2006C73.9023 10.581 73.8485 10.9871 73.8828 11.3905V17.9175H70.8668V17.9125Z" fill="#4D5072"></path></svg>