<svg xmlns="http://www.w3.org/2000/svg" width="99" height="30" viewBox="0 0 99 30" fill="none"><path d="M15.0919 3.38876e-08C12.1735 0.000197812 9.32068 0.86579 6.8942 2.48732C4.46772 4.10885 2.57656 6.41349 1.45987 9.10982C0.343174 11.8061 0.0510986 14.773 0.620575 17.6354C1.19005 20.4977 2.5955 23.1269 4.65921 25.1904C6.72291 27.254 9.35218 28.6593 12.2145 29.2285C15.0769 29.7978 18.0438 29.5055 20.74 28.3887C23.4363 27.2718 25.7408 25.3805 27.3622 22.9539C28.9835 20.5273 29.8489 17.6744 29.8489 14.756C29.8489 12.8181 29.4672 10.8992 28.7256 9.10889C27.984 7.31855 26.897 5.69181 25.5266 4.32158C24.1563 2.95134 22.5295 1.86445 20.7391 1.12295C18.9487 0.381447 17.0298 -0.000131294 15.0919 3.38876e-08ZM21.8589 21.282C21.7956 21.3848 21.7126 21.4741 21.6148 21.5448C21.5169 21.6155 21.4061 21.6663 21.2886 21.6941C21.1711 21.722 21.0493 21.7264 20.9301 21.7072C20.8109 21.6879 20.6967 21.6454 20.5939 21.582C17.1289 19.466 12.7679 18.982 7.63092 20.16C7.39302 20.2142 7.14332 20.1717 6.93675 20.0419C6.73018 19.912 6.58366 19.7054 6.52942 19.4675C6.47518 19.2296 6.51767 18.9799 6.64754 18.7733C6.77741 18.5668 6.98402 18.4202 7.22192 18.366C12.8429 17.082 17.6649 17.635 21.5539 20.012C21.6577 20.075 21.748 20.158 21.8195 20.2561C21.8911 20.3541 21.9425 20.4654 21.9709 20.5835C21.9992 20.7015 22.0039 20.824 21.9847 20.9439C21.9655 21.0638 21.9228 21.1787 21.8589 21.282ZM23.6649 17.264C23.5054 17.5241 23.2492 17.7102 22.9526 17.7814C22.6559 17.8527 22.3431 17.8032 22.0829 17.644C17.604 15.1469 12.3175 14.528 7.38292 15.923C7.09118 16.0122 6.77594 15.9819 6.50654 15.8388C6.23715 15.6956 6.03567 15.4512 5.94642 15.1595C5.85718 14.8678 5.88748 14.5525 6.03066 14.2831C6.17385 14.0137 6.41818 13.8122 6.70992 13.723C9.46377 12.9302 12.3482 12.6952 15.1941 13.0318C18.0399 13.3683 20.79 14.2697 23.2829 15.683C23.4117 15.762 23.5237 15.8655 23.6124 15.9878C23.7012 16.11 23.765 16.2486 23.8002 16.3955C23.8354 16.5424 23.8413 16.6948 23.8176 16.844C23.7938 16.9932 23.7409 17.1362 23.6619 17.265L23.6649 17.264ZM23.8199 13.08C19.0639 10.255 11.2199 9.995 6.67692 11.374C6.50242 11.4305 6.3184 11.4516 6.13564 11.4361C5.95287 11.4207 5.77502 11.3689 5.61248 11.2839C5.44995 11.199 5.30599 11.0824 5.18901 10.9411C5.07204 10.7999 4.98441 10.6367 4.93123 10.4611C4.87806 10.2856 4.86041 10.1012 4.87932 9.91877C4.89824 9.73633 4.95333 9.55949 5.04138 9.39858C5.12943 9.23768 5.24867 9.09595 5.39214 8.98167C5.5356 8.86738 5.70041 8.78285 5.87692 8.733C11.0889 7.151 19.7539 7.456 25.2299 10.707C25.3858 10.7994 25.5219 10.9217 25.6306 11.0668C25.7392 11.2118 25.8182 11.3769 25.8631 11.5525C25.9079 11.7281 25.9177 11.9108 25.892 12.0902C25.8662 12.2696 25.8054 12.4421 25.7129 12.598C25.6205 12.7539 25.4982 12.89 25.3532 12.9987C25.2081 13.1073 25.043 13.1863 24.8675 13.2311C24.6919 13.276 24.5091 13.2858 24.3298 13.2601C24.1504 13.2343 23.9778 13.1734 23.8219 13.081L23.8199 13.08ZM40.4829 13.623C37.9349 13.015 37.4829 12.589 37.4829 11.693C37.4829 10.846 38.2829 10.277 39.4649 10.277C40.7396 10.3225 41.9636 10.7876 42.9469 11.6C42.9648 11.6132 42.9851 11.6227 43.0067 11.628C43.0283 11.6333 43.0507 11.6342 43.0726 11.6308C43.0946 11.6273 43.1156 11.6196 43.1346 11.6079C43.1535 11.5963 43.1699 11.581 43.1829 11.563L44.4269 9.809C44.4516 9.77422 44.462 9.73134 44.456 9.68914C44.4501 9.64694 44.4282 9.60861 44.3949 9.582C43.0164 8.45437 41.2827 7.85203 39.5019 7.882C36.7509 7.882 34.8289 9.533 34.8289 11.895C34.8289 14.428 36.4869 15.325 39.3519 16.017C41.7889 16.579 42.2009 17.049 42.2009 17.89C42.2009 18.822 41.3689 19.402 40.0299 19.402C38.5112 19.3903 37.0563 18.7894 35.9719 17.726C35.938 17.6972 35.8943 17.6825 35.8499 17.685C35.8278 17.6865 35.8063 17.6924 35.7865 17.7023C35.7668 17.7123 35.7492 17.7261 35.7349 17.743L34.3349 19.403C34.3068 19.4363 34.2928 19.4793 34.2958 19.5227C34.2988 19.5662 34.3186 19.6068 34.3509 19.636C35.8892 21.0298 37.8932 21.7977 39.9689 21.789C42.9329 21.789 44.8479 20.17 44.8479 17.662C44.8529 15.546 43.5859 14.374 40.4829 13.62H40.4779L40.4829 13.623ZM51.5589 11.11C50.9412 11.1019 50.33 11.237 49.7733 11.5047C49.2165 11.7724 48.7293 12.1655 48.3499 12.653V11.485C48.3501 11.4631 48.3459 11.4414 48.3376 11.4212C48.3293 11.4009 48.3171 11.3825 48.3017 11.367C48.2862 11.3515 48.2679 11.3391 48.2477 11.3307C48.2275 11.3223 48.2058 11.318 48.1839 11.318H45.9029C45.881 11.318 45.8594 11.3223 45.8392 11.3307C45.819 11.3391 45.8006 11.3515 45.7852 11.367C45.7698 11.3825 45.7575 11.4009 45.7493 11.4212C45.741 11.4414 45.7368 11.4631 45.7369 11.485V24.454C45.7369 24.4981 45.7544 24.5404 45.7855 24.5717C45.8166 24.603 45.8588 24.6207 45.9029 24.621H48.1829C48.227 24.6207 48.2693 24.603 48.3004 24.5717C48.3315 24.5404 48.3489 24.4981 48.3489 24.454V20.361C48.7423 20.8263 49.2345 21.198 49.7896 21.4492C50.3447 21.7003 50.9487 21.8246 51.5579 21.813C53.9459 21.813 56.3629 19.975 56.3629 16.462C56.3629 12.949 53.9489 11.109 51.5629 11.109L51.5589 11.11ZM53.7109 16.462C53.7509 16.8408 53.7117 17.2237 53.596 17.5865C53.4802 17.9493 53.2903 18.2842 53.0384 18.5698C52.7864 18.8554 52.4779 19.0855 52.1323 19.2457C51.7868 19.4058 51.4117 19.4924 51.0309 19.5C50.6492 19.4878 50.2739 19.3986 49.9276 19.2378C49.5812 19.0769 49.2709 18.8478 49.0153 18.564C48.7597 18.2803 48.564 17.9479 48.44 17.5866C48.3161 17.2254 48.2664 16.8429 48.2939 16.462C48.2662 16.081 48.3158 15.6984 48.4397 15.337C48.5636 14.9757 48.7593 14.6431 49.0149 14.3593C49.2705 14.0755 49.5809 13.8462 49.9273 13.6853C50.2738 13.5244 50.6491 13.4352 51.0309 13.423C51.4102 13.435 51.783 13.5245 52.1263 13.686C52.4697 13.8476 52.7763 14.0777 53.0274 14.3622C53.2785 14.6467 53.4686 14.9796 53.5862 15.3404C53.7037 15.7012 53.7462 16.0822 53.7109 16.46V16.462ZM62.5579 11.11C61.5013 11.1299 60.4741 11.4616 59.6053 12.0633C58.7365 12.665 58.0649 13.5101 57.6747 14.4922C57.2846 15.4744 57.1933 16.55 57.4124 17.5839C57.6315 18.6177 58.1512 19.5638 58.9062 20.3033C59.6612 21.0428 60.6178 21.5428 61.656 21.7404C62.6942 21.9381 63.7676 21.8246 64.7415 21.4142C65.7154 21.0038 66.5463 20.3148 67.13 19.4337C67.7136 18.5527 68.0239 17.5188 68.0219 16.462C68.0183 15.7507 67.8737 15.0472 67.5964 14.3922C67.3192 13.7372 66.9148 13.1436 66.4066 12.6459C65.8985 12.1482 65.2967 11.7562 64.6361 11.4925C63.9755 11.2289 63.2691 11.0989 62.5579 11.11ZM62.5579 19.518C62.1662 19.5144 61.7793 19.4314 61.4205 19.2742C61.0618 19.1169 60.7386 18.8886 60.4704 18.603C60.2023 18.3174 59.9948 17.9805 59.8605 17.6125C59.7262 17.2445 59.6678 16.8532 59.6889 16.462C59.6636 16.0747 59.7181 15.6864 59.849 15.3211C59.9799 14.9557 60.1844 14.6211 60.4499 14.3381C60.7155 14.055 61.0363 13.8295 61.3925 13.6756C61.7488 13.5216 62.1328 13.4424 62.5209 13.443C62.9137 13.4457 63.3019 13.528 63.6621 13.6848C64.0223 13.8416 64.347 14.0696 64.6167 14.3553C64.8863 14.6409 65.0954 14.9782 65.2312 15.3468C65.367 15.7154 65.4268 16.1077 65.4069 16.5C65.4313 16.8884 65.3756 17.2777 65.2433 17.6437C65.111 18.0097 64.9048 18.3446 64.6377 18.6276C64.3705 18.9106 64.0481 19.1356 63.6903 19.2888C63.3325 19.442 62.9471 19.52 62.5579 19.518ZM74.5879 11.318H72.0769V8.751C72.0771 8.72912 72.0729 8.70742 72.0646 8.68717C72.0563 8.66691 72.0441 8.64849 72.0287 8.63297C72.0132 8.61745 71.9949 8.60513 71.9747 8.59673C71.9545 8.58833 71.9328 8.584 71.9109 8.584H69.6299C69.5857 8.58426 69.5434 8.60194 69.5121 8.6332C69.4809 8.66446 69.4632 8.70679 69.4629 8.751V11.318H68.3629C68.341 11.318 68.3194 11.3223 68.2992 11.3307C68.279 11.3391 68.2606 11.3515 68.2452 11.367C68.2298 11.3825 68.2176 11.4009 68.2093 11.4212C68.201 11.4414 68.1968 11.4631 68.1969 11.485V13.446C68.1969 13.4901 68.2144 13.5324 68.2455 13.5637C68.2766 13.595 68.3188 13.6127 68.3629 13.613H69.4629V18.687C69.4629 20.736 70.4829 21.776 72.4969 21.776C73.2438 21.7939 73.9817 21.6101 74.6329 21.244C74.6588 21.2299 74.6803 21.2091 74.6953 21.1837C74.7103 21.1584 74.7181 21.1294 74.7179 21.1V19.231C74.7179 19.2027 74.7106 19.1749 74.6967 19.1502C74.6829 19.1256 74.663 19.1048 74.6389 19.09C74.6149 19.0747 74.5873 19.066 74.5589 19.0648C74.5304 19.0635 74.5022 19.0698 74.4769 19.083C74.0632 19.297 73.6037 19.4075 73.1379 19.405C72.4069 19.405 72.0789 19.072 72.0789 18.328V13.614H74.5899C74.6118 13.614 74.6335 13.6097 74.6537 13.6013C74.6739 13.5929 74.6922 13.5805 74.7077 13.565C74.7231 13.5495 74.7353 13.5311 74.7436 13.5108C74.7519 13.4906 74.7561 13.4689 74.7559 13.447V11.487C74.7566 11.4651 74.7528 11.4434 74.7449 11.423C74.7369 11.4026 74.7249 11.3841 74.7096 11.3685C74.6943 11.3529 74.6759 11.3405 74.6557 11.3322C74.6355 11.3239 74.6138 11.3197 74.5919 11.32L74.5879 11.318ZM83.3349 11.328V11.013C83.3349 10.086 83.6909 9.672 84.4869 9.672C84.926 9.67719 85.3609 9.75734 85.7729 9.909C85.798 9.91746 85.8248 9.91979 85.851 9.91579C85.8772 9.91179 85.902 9.90158 85.9235 9.88602C85.9449 9.87046 85.9623 9.84999 85.9742 9.82632C85.9861 9.80266 85.9922 9.77649 85.9919 9.75V7.823C85.9923 7.78713 85.981 7.7521 85.9597 7.72323C85.9384 7.69436 85.9083 7.67322 85.8739 7.663C85.2584 7.47505 84.6175 7.3833 83.9739 7.391C81.8679 7.391 80.7529 8.578 80.7529 10.821V11.304H79.6529C79.6087 11.3043 79.5664 11.3219 79.5351 11.3532C79.5039 11.3845 79.4862 11.4268 79.4859 11.471V13.442C79.4862 13.4862 79.5039 13.5285 79.5351 13.5598C79.5664 13.5911 79.6087 13.6087 79.6529 13.609H80.7529V21.434C80.7529 21.4783 80.7705 21.5208 80.8018 21.5521C80.8332 21.5834 80.8756 21.601 80.9199 21.601H83.1999C83.2219 21.6011 83.2437 21.5969 83.264 21.5886C83.2843 21.5802 83.3028 21.5679 83.3183 21.5524C83.3338 21.5368 83.3461 21.5184 83.3545 21.4981C83.3628 21.4777 83.3671 21.456 83.3669 21.434V13.614H85.4969L88.7599 21.438C88.3899 22.259 88.0249 22.423 87.5279 22.423C87.0851 22.412 86.6522 22.2888 86.2699 22.065C86.229 22.0445 86.1819 22.0403 86.1379 22.053C86.1159 22.0602 86.0956 22.0719 86.0784 22.0874C86.0612 22.1029 86.0474 22.1218 86.0379 22.143L85.2639 23.843C85.2461 23.8815 85.2436 23.9254 85.257 23.9658C85.2703 24.0061 85.2986 24.0398 85.3359 24.06C86.0778 24.4806 86.9182 24.696 87.7709 24.684C89.4559 24.684 90.3879 23.898 91.2069 21.784L95.1729 11.556C95.1828 11.5309 95.1864 11.5037 95.1835 11.4769C95.1806 11.4501 95.1712 11.4243 95.1561 11.4019C95.1411 11.3795 95.1209 11.3611 95.0971 11.3482C95.0734 11.3353 95.0469 11.3284 95.0199 11.328H92.6439C92.609 11.3277 92.575 11.3384 92.5464 11.3585C92.5179 11.3786 92.4964 11.4071 92.4849 11.44L90.0519 18.389L87.3829 11.436C87.371 11.4046 87.3497 11.3775 87.3221 11.3584C87.2944 11.3393 87.2616 11.329 87.2279 11.329H83.3279L83.3349 11.328ZM78.2639 11.318H75.9829C75.9387 11.3183 75.8964 11.3359 75.8651 11.3672C75.8339 11.3985 75.8162 11.4408 75.8159 11.485V21.437C75.8159 21.4589 75.8202 21.4806 75.8286 21.5009C75.837 21.5212 75.8493 21.5396 75.8648 21.5551C75.8803 21.5706 75.8988 21.5829 75.919 21.5913C75.9393 21.5997 75.961 21.604 75.9829 21.604H78.2649C78.2869 21.604 78.3086 21.5997 78.3288 21.5913C78.3491 21.5829 78.3675 21.5706 78.383 21.5551C78.3985 21.5396 78.4108 21.5212 78.4192 21.5009C78.4276 21.4806 78.4319 21.4589 78.4319 21.437V11.486C78.4319 11.4417 78.4143 11.3992 78.383 11.3679C78.3517 11.3366 78.3092 11.319 78.2649 11.319L78.2639 11.318ZM77.1359 6.786C76.8124 6.7858 76.496 6.88156 76.2268 7.06116C75.9577 7.24076 75.7478 7.49614 75.6238 7.79501C75.4998 8.09387 75.4672 8.4228 75.5302 8.74019C75.5931 9.05758 75.7487 9.34918 75.9774 9.57812C76.2061 9.80706 76.4975 9.96305 76.8148 10.0264C77.1321 10.0897 77.4611 10.0575 77.7601 9.93385C78.0591 9.81021 78.3147 9.60067 78.4947 9.33174C78.6746 9.06281 78.7707 8.74657 78.7709 8.423C78.7711 8.20816 78.7289 7.99539 78.6468 7.79685C78.5647 7.59831 78.4443 7.41789 78.2925 7.26588C78.1406 7.11387 77.9604 6.99325 77.7619 6.91092C77.5635 6.82858 77.3508 6.78613 77.1359 6.786ZM97.1219 14.523C96.8039 14.5222 96.4932 14.4272 96.2291 14.2501C95.9649 14.0729 95.7592 13.8215 95.6378 13.5275C95.5164 13.2335 95.4848 12.9102 95.547 12.5983C95.6092 12.2864 95.7623 11.9999 95.9871 11.7749C96.212 11.55 96.4984 11.3966 96.8102 11.3343C97.1221 11.2719 97.4455 11.3033 97.7395 11.4245C98.0336 11.5457 98.2851 11.7513 98.4624 12.0153C98.6398 12.2793 98.7349 12.59 98.7359 12.908C98.7379 13.1206 98.6976 13.3314 98.6172 13.5282C98.5368 13.7249 98.418 13.9037 98.2677 14.0541C98.1175 14.2044 97.9387 14.3233 97.742 14.4039C97.5453 14.4844 97.3345 14.5249 97.1219 14.523ZM97.1309 11.463C96.8433 11.4602 96.5614 11.543 96.321 11.7009C96.0807 11.8587 95.8926 12.0845 95.7809 12.3495C95.6691 12.6145 95.6387 12.9067 95.6935 13.189C95.7482 13.4714 95.8857 13.731 96.0884 13.935C96.2912 14.139 96.5499 14.2781 96.8319 14.3346C97.1139 14.3912 97.4063 14.3626 97.672 14.2525C97.9377 14.1424 98.1646 13.9558 98.324 13.7164C98.4833 13.477 98.5679 13.1956 98.5669 12.908C98.5681 12.7187 98.5318 12.531 98.4602 12.3557C98.3886 12.1804 98.283 12.0211 98.1495 11.8868C98.0161 11.7525 97.8574 11.6459 97.6825 11.5732C97.5077 11.5004 97.3203 11.463 97.1309 11.463ZM97.4869 13.073L97.9419 13.709H97.5579L97.1489 13.126H96.7979V13.709H96.4769V12.023H97.2279C97.6209 12.023 97.8779 12.223 97.8779 12.561C97.8836 12.6785 97.8478 12.7942 97.7766 12.8878C97.7055 12.9815 97.6036 13.047 97.4889 13.073H97.4869ZM97.2159 12.313H96.7979V12.846H97.2159C97.4239 12.846 97.5489 12.746 97.5489 12.579C97.5489 12.412 97.4229 12.308 97.2149 12.308L97.2159 12.313Z" fill="#4D5072"></path></svg>